# xmcd
#
# Track frame offsets:
#	150
#	8811
#	19925
#	34993
#	46808
#
# Disc length: 754 seconds
#
# Revision: 0
# Processed by: cddbd v1.5.1PL0 Copyright (c) Steve Scherf et al.
# Submitted via: dBpowerAMP V4.0
#
DISCID=3402f005
DTITLE=Fred McCarty - The Rock 'n Roll Raindeers
DYEAR=2002
DGENRE=Christmas
TTITLE0=Jingle Bell Rock
TTITLE1=Santa Claus is Coming to Town
TTITLE2=Twelve Days of Christmas
TTITLE3=White Christmas
TTITLE4=Rudolph the Red Nose Raindeer
EXTD=
EXTT0=
EXTT1=
EXTT2=
EXTT3=
EXTT4=
PLAYORDER=
